<svg width="185" height="67" viewBox="0 0 185 67" fill="none" xmlns="http://www.w3.org/2000/svg">
<g id="Group 91">
<g id="Starobrno Logo KOMPLEX">
<path id="&#60;Compound Path&#62;" fill-rule="evenodd" clip-rule="evenodd" d="M108.775 38.9182L108.597 39.1347C108.571 39.1602 106.916 41.0193 106.203 41.7578C105.846 42.1271 105.63 42.2417 105.197 42.2417C104.458 42.2417 104 41.8597 103.656 41.3376C103.898 41.4777 104.178 41.5796 104.534 41.5796C104.967 41.5796 105.184 41.465 105.54 41.0957C106.254 40.3571 107.909 38.498 107.934 38.4726L108.189 38.1797L108.775 38.9182ZM109.017 24.2109L108.762 24.4656L108.164 23.7398L108.355 23.5488C108.673 23.2432 108.813 23.2177 108.864 23.2177C109.068 23.2177 109.297 23.4087 109.399 23.9181C109.322 23.9563 109.195 24.0327 109.017 24.2109ZM116.377 38.5999L116.186 38.8164C116.186 38.8164 114.212 41.0193 113.792 41.4522C113.537 41.7451 113.181 41.8979 112.786 41.8979C112.251 41.8979 111.665 41.605 111.245 41.1594C111.143 41.0405 111.046 40.9259 110.952 40.8156C111.321 41.083 111.729 41.2358 112.124 41.2358C112.518 41.2358 112.875 41.083 113.13 40.7901C113.55 40.3571 115.524 38.1542 115.524 38.1542L115.778 37.8741L116.377 38.5999ZM106.445 26.452V35.2255C106.445 36.5243 106.508 37.3265 106.61 37.8104C106.572 37.8104 106.534 37.8232 106.508 37.8232C106.024 37.8232 105.782 37.3265 105.782 34.5634V25.7899C105.782 24.3255 105.63 22.7466 104.776 21.626C106.203 22.6956 106.445 24.6566 106.445 26.452ZM114.097 26.07V35.9258C114.097 36.6389 114.136 37.1228 114.212 37.4539C114.174 37.4539 114.123 37.4666 114.085 37.4666C113.881 37.4666 113.435 37.4666 113.435 35.2637V25.4079C113.435 24.0327 113.881 23.2686 114.683 23.2686C115.014 23.2686 115.243 23.3705 115.396 23.5615C115.485 23.6761 115.536 23.8035 115.575 23.9435C115.507 23.935 115.43 23.9308 115.345 23.9308C114.543 23.9308 114.097 24.6948 114.097 26.07ZM99.1609 36.0786C99.1609 36.9955 99.4028 37.976 99.7976 38.6254C99.0336 38.2688 98.4988 36.7663 98.4988 35.4165C98.4988 33.4555 99.2118 31.6983 100.32 30.9343C101.045 30.4249 101.555 30.0939 101.822 29.9156V30.5395C101.822 30.6796 101.822 30.8451 101.822 31.0107C101.593 31.1762 101.313 31.3672 100.982 31.5964C99.874 32.3604 99.1609 34.1177 99.1609 36.0786ZM121.432 39.7205C122.387 40.5354 123.508 40.9429 124.768 40.9429C126.207 40.9429 127.455 40.4208 128.486 39.3767C130.346 37.4921 131.301 34.054 131.25 29.4317C131.211 26.2356 130.32 23.014 128.626 21.053C130.753 22.8866 131.874 26.503 131.912 30.0939C131.963 34.7162 131.008 38.1542 129.149 40.0388C128.117 41.083 126.869 41.605 125.43 41.605C123.991 41.605 122.744 41.083 121.725 40.0388C121.623 39.9369 121.525 39.8308 121.432 39.7205ZM123.24 30.4504C123.24 35.5184 123.788 37.8486 124.412 38.8673C123.597 38.498 122.578 36.6899 122.578 29.7882C122.578 24.3383 123.393 21.0912 124.755 21.0912C125.137 21.0912 125.481 21.3459 125.774 21.8297C125.66 21.7788 125.545 21.7533 125.418 21.7533C124.055 21.7533 123.24 25.0004 123.24 30.4504ZM116.288 26.3374L116.733 25.8026C116.797 25.7262 118.338 23.8544 118.338 21.9698C118.338 21.6005 118.236 21.2185 118.045 20.8875C118.669 21.2822 119 21.9571 119 22.632C119 24.5165 117.459 26.3884 117.395 26.4648L117.243 26.6431L116.288 26.3374ZM165.376 39.5931L165.185 39.8096C165.185 39.8096 163.211 42.0125 162.803 42.4455C162.536 42.7383 162.205 42.9039 161.785 42.8784C161.25 42.8784 160.664 42.5983 160.257 42.1526C160.146 42.0337 160.049 41.9191 159.964 41.8088C160.32 42.0634 160.728 42.2162 161.123 42.2162C161.543 42.2417 161.874 42.0762 162.141 41.7833C162.549 41.3504 164.523 39.1474 164.523 39.1474L164.777 38.8673L165.376 39.5931ZM154.539 38.931L154.348 39.1474C154.348 39.1474 152.362 41.3376 151.954 41.7833C151.7 42.0634 151.343 42.2162 150.948 42.2162C150.401 42.2162 149.815 41.9361 149.408 41.4777C149.297 41.3673 149.2 41.257 149.115 41.1466C149.471 41.4013 149.892 41.5541 150.286 41.5541C150.681 41.5541 151.038 41.4013 151.292 41.1212C151.7 40.6755 153.686 38.4853 153.686 38.4853L153.941 38.2052L154.539 38.931ZM167.197 42.4964C166.993 42.3181 166.84 42.1271 166.713 41.9488C166.904 42.038 167.298 42.2035 167.68 42.229C168.215 42.2799 168.814 42.1526 169.119 42.0634C169.909 41.847 170.469 41.847 170.978 42.0889C171.386 42.2672 171.704 42.5473 171.933 42.9039C171.84 42.8444 171.742 42.7935 171.641 42.7511C171.131 42.5091 170.571 42.5091 169.781 42.7256C169.476 42.8147 168.877 42.9421 168.343 42.8911C167.846 42.8529 167.298 42.5728 167.273 42.5601L167.197 42.4964ZM151.598 35.582V25.7262C151.598 24.351 152.044 23.587 152.846 23.587C153.177 23.587 153.406 23.6761 153.559 23.8799C153.648 23.9945 153.699 24.1218 153.737 24.2619C153.669 24.2534 153.593 24.2491 153.508 24.2491C152.706 24.2491 152.26 25.0131 152.26 26.3884V36.2442C152.26 36.9573 152.311 37.4411 152.375 37.7722C152.336 37.785 152.286 37.7977 152.235 37.7977C152.044 37.7977 151.598 37.7977 151.598 35.582ZM145.651 30.0302C145.651 26.0828 144.734 22.9503 143.181 21.1294C145.129 22.7848 146.313 26.2228 146.313 30.6796C146.313 32.5387 145.868 35.4929 145.002 37.5303C143.83 40.3571 141.869 41.847 139.348 41.847C137.26 41.847 135.324 40.9302 133.809 39.2366C135.21 40.4972 136.891 41.1848 138.686 41.1848C141.207 41.1848 143.168 39.695 144.34 36.8681C145.206 34.8308 145.651 31.8766 145.651 30.0302ZM162.434 36.2442V26.3884C162.434 25.166 162.714 23.7143 164.064 23.7143C164.688 23.7143 165.045 24.0327 165.248 24.4783C165.096 24.4147 164.93 24.3765 164.726 24.3765C163.376 24.3765 163.096 25.8281 163.096 27.0505V36.9063C163.096 37.6194 163.147 38.1033 163.211 38.4344C163.173 38.4471 163.122 38.4598 163.084 38.4598C162.893 38.4598 162.434 38.4598 162.434 36.2442ZM146.912 24.7839L146.326 24.0581L146.517 23.8671C146.848 23.5488 146.988 23.536 147.014 23.536C147.218 23.536 147.447 23.7271 147.549 24.2364C147.472 24.2746 147.358 24.3637 147.179 24.5293L146.912 24.7839ZM95.5573 15.7176C96.2194 16.2652 96.9962 16.6981 97.9385 17.0037C99.1991 17.4367 100.498 17.5131 101.478 17.5385C103.325 17.5767 105.222 17.2966 107.234 16.6599C109.513 15.9468 111.372 15.2337 113.079 14.3933C115.829 13.0436 118.605 11.6047 121.292 10.2294L122.871 9.40175C125.099 8.25573 127.404 7.05877 129.798 6.16741C131.644 5.49253 133.096 5.14873 134.509 5.05959C135.146 5.02139 135.719 5.08506 136.241 5.2888C136.865 5.518 137.387 5.90001 137.744 6.39662C137.502 6.20561 137.222 6.05281 136.903 5.95094C136.381 5.7472 135.808 5.68354 135.172 5.72174C133.758 5.81087 132.306 6.15468 130.46 6.82956C128.066 7.72091 125.761 8.91787 123.533 10.0639L121.954 10.8916C119.267 12.2668 116.491 13.7057 113.741 15.0555C112.035 15.8959 110.175 16.609 107.896 17.3221C105.884 17.9587 103.987 18.2389 102.141 18.2007C101.147 18.1752 99.8613 18.0988 98.6006 17.6659C97.3145 17.2457 96.3213 16.5962 95.5573 15.7176ZM96.2194 40.7137C96.7925 41.1466 97.4928 41.3758 98.3078 41.3758C100.383 41.3758 101.606 40.3189 102.421 39.5677C102.548 39.8733 102.688 40.1789 102.841 40.4463C102.026 41.1721 100.842 42.038 98.9699 42.038C97.7984 42.038 96.8816 41.5923 96.2194 40.7137ZM99.7976 26.2738C99.9249 26.0446 100.052 25.7135 99.6703 25.3315L99.5811 25.2551C99.3264 25.0513 98.8171 24.6057 98.8171 23.8799C98.8171 22.7848 99.5939 21.7915 100.447 21.7915C101.02 21.7915 101.364 22.0972 101.568 22.5428C101.44 22.4919 101.287 22.4537 101.109 22.4537C100.256 22.4537 99.4792 23.4469 99.4792 24.542C99.4792 25.2678 99.9886 25.7135 100.243 25.9172L100.332 25.9936C100.714 26.3756 100.587 26.7067 100.46 26.9359C100.256 27.2797 99.3519 27.9291 98.3332 27.9291C97.5055 27.9291 96.8816 27.5853 96.5123 26.9614C96.8307 27.1651 97.2254 27.267 97.6711 27.267C98.6898 27.267 99.5938 26.6176 99.7976 26.2738ZM87.0003 24.7839H87.1404V25.4461C86.3636 25.4461 85.4086 25.4588 84.912 25.5225C84.2499 25.6116 83.8551 25.8154 83.8551 25.8154L83.3712 26.0573V25.5098C83.3712 25.3654 83.3882 25.2126 83.4222 25.0513C83.6132 24.9877 83.8806 24.9113 84.2499 24.8603C84.8611 24.7839 86.1981 24.7839 87.0003 24.7839ZM84.5937 44.4828C83.0147 48.3538 77.7812 54.466 71.5163 55.2682C70.383 55.4974 69.0587 55.6375 67.658 55.6375C64.6528 55.6375 61.2402 55.0008 58.3115 53.2435C57.4456 52.7215 56.6561 52.0593 55.9558 51.308C56.4906 51.7919 57.0509 52.2249 57.6494 52.5941C60.5781 54.3386 63.9907 54.9753 66.9958 54.9753C68.3965 54.9753 69.7208 54.8352 70.8541 54.606C77.119 53.8038 82.3526 47.6917 83.9315 43.8207C84.8101 41.656 85.2049 39.4276 85.1285 37.2119C85.0648 35.6839 84.7847 34.1049 84.2881 32.5387C83.8551 31.1762 83.2821 29.8519 82.5945 28.604C81.423 26.4648 79.8695 24.4274 77.8831 22.4028C80.1878 24.6439 81.9578 26.8977 83.2566 29.2662C83.9443 30.5141 84.5173 31.8384 84.9502 33.2009C85.4468 34.7671 85.727 36.3461 85.7906 37.8741C85.867 40.0897 85.4723 42.3181 84.5937 44.4828ZM56.8344 48.2902C55.612 46.5839 55.2045 44.7502 55.5865 42.8529C56.6434 37.785 60.5144 35.3146 63.7997 34.6907C66.4483 34.1813 69.6317 35.6075 70.5485 36.8809C69.2115 35.8367 66.652 34.9326 64.4618 35.3528C61.1766 35.9768 57.3056 38.4471 56.2487 43.5151C55.8667 45.4124 56.2741 47.246 57.4966 48.9523C57.7767 49.3471 58.0823 49.7036 58.3879 50.0474C57.8276 49.5253 57.3056 48.9396 56.8344 48.2902ZM81.8559 15.4247C81.996 15.412 82.1488 15.3738 82.3144 15.2719C82.5351 15.1446 82.7303 15.0003 82.9001 14.839C84.4663 13.3492 85.6888 11.5028 86.5546 9.36355C86.7966 8.7778 87.0513 8.00105 87.0131 7.1479C86.9748 6.21835 86.5801 5.31426 85.8416 4.47385C86.0368 4.64363 86.2193 4.8219 86.3891 5.00866C87.2041 5.88727 87.637 6.82956 87.6752 7.81005C87.7134 8.6632 87.4587 9.43995 87.2168 10.0257C86.3509 12.1649 85.1285 14.0113 83.5622 15.5011C83.3925 15.6624 83.1972 15.8068 82.9765 15.9341C82.6964 16.0996 82.4417 16.1378 82.2252 16.036C82.0215 15.9341 81.9069 15.7304 81.8559 15.4247ZM81.9833 65.3532C82.0597 65.4296 82.2889 65.6461 82.5818 65.6461C82.6072 65.6461 82.6369 65.6418 82.6709 65.6334C82.9765 65.5824 83.142 65.315 83.2439 65.1113C83.6004 64.36 84.148 63.8124 84.6319 63.3922C86.0326 62.1698 87.6497 61.062 89.598 59.9796C94.3349 57.382 98.6388 55.4592 102.765 54.1349C104.547 53.5619 106.012 53.1289 107.387 52.7851C108.558 52.4923 109.768 52.3013 110.939 52.1103L111.194 52.0593C112.722 51.8174 114.288 51.5627 115.842 51.3844C117.968 51.1425 119.84 50.9897 121.547 50.9006C123.699 50.7732 125.978 50.6968 128.728 50.6459C131.619 50.595 134.637 50.7223 137.947 51.0406C140.329 51.2698 142.659 51.55 144.824 51.8174C146.288 52.0084 147.701 52.2503 148.898 52.4668C149.739 52.6069 150.566 52.7724 151.394 52.9379C151.946 53.0483 152.498 53.1544 153.05 53.2563C153.839 53.4006 154.628 53.5449 155.418 53.6892C156.462 53.8802 157.519 54.0712 158.563 54.275C161.479 54.848 163.899 55.2682 166.496 55.1154C168.406 55.0008 169.845 54.6824 171.144 54.0967C174.353 52.6196 176.008 49.4235 175.372 45.9599C175.053 44.3173 174.442 42.9675 173.525 41.9234C174.811 43.0439 175.652 44.6102 176.034 46.6221C176.67 50.0856 175.015 53.2817 171.806 54.7589C170.507 55.3446 169.068 55.6629 167.158 55.7775C164.561 55.9303 162.141 55.5101 159.225 54.9371C158.181 54.7334 157.124 54.5424 156.08 54.3514C155.291 54.2071 154.501 54.0627 153.712 53.9184C153.16 53.8166 152.608 53.7105 152.056 53.6001C151.229 53.4346 150.401 53.269 149.561 53.1289C148.364 52.9125 146.95 52.6705 145.486 52.4795C143.321 52.2121 140.991 51.9193 138.61 51.7028C135.299 51.3844 132.281 51.2571 129.39 51.308C126.64 51.359 124.361 51.4354 122.209 51.5627C120.502 51.6519 118.631 51.8047 116.504 52.0466C114.951 52.2249 113.372 52.4795 111.856 52.7215L111.602 52.7724C110.43 52.9507 109.22 53.1544 108.049 53.4473C106.674 53.7911 105.209 54.224 103.427 54.797C99.301 56.1213 94.997 58.0441 90.2601 60.6418C88.3119 61.7241 86.6947 62.832 85.294 64.0544C84.8101 64.4746 84.2626 65.0221 83.9061 65.7734C83.8042 65.9772 83.6386 66.2446 83.333 66.2955C83.2991 66.304 83.2694 66.3082 83.2439 66.3082C82.951 66.3082 82.7218 66.0918 82.6454 66.0154L82.1106 65.4933L81.9833 65.3532ZM91.4316 24.7839C92.7432 24.7967 93.8892 24.7967 94.5131 24.4147C95.2262 23.969 95.6082 23.0649 95.7738 22.5428C95.9775 22.4792 96.0666 22.441 96.0666 22.441L96.6015 22.199C95.9266 22.9885 95.5318 23.9181 95.5191 24.8094C95.4172 24.9113 95.3026 25.0004 95.1753 25.0768C94.5513 25.4588 93.4053 25.4588 92.0938 25.4461H91.7882V38.689C91.7882 39.2323 91.8306 39.661 91.9155 39.9751C91.7966 39.9751 91.6948 39.9497 91.6099 39.8987C91.2915 39.7205 91.126 39.0965 91.126 38.0269V24.7839H91.4316ZM184.998 32.144C185.049 36.779 184.094 40.2171 182.235 42.1016C181.204 43.1458 179.956 43.6679 178.529 43.6679C177.091 43.6679 175.843 43.1458 174.811 42.1016C174.718 41.9998 174.625 41.8937 174.531 41.7833C175.473 42.5983 176.594 43.0057 177.867 43.0057C179.293 43.0057 180.541 42.4837 181.573 41.4395C183.432 39.5549 184.387 36.1169 184.336 31.4818C184.298 28.3621 183.47 25.0895 181.751 23.1031C183.916 24.9495 184.96 28.6422 184.998 32.144ZM72.7005 37.1228C73.3372 36.3588 74.0502 35.5056 73.8465 34.4615C73.7192 33.7611 73.2735 32.9844 72.6241 32.2458C73.6428 33.1754 74.3431 34.2068 74.5086 35.1236C74.6997 36.1678 73.9993 37.0209 73.3626 37.785C73.2353 37.9505 73.0952 38.116 72.9806 38.2688C72.8533 38.4344 72.6877 38.5872 72.4967 38.7018C72.2675 38.8418 72.0893 38.8291 71.9747 38.7909C71.8049 38.7315 71.6775 38.5999 71.5927 38.3962C71.5672 38.3198 71.529 38.2306 71.5035 38.1415C71.6054 38.1415 71.7073 38.116 71.8346 38.0396C72.0256 37.925 72.1911 37.7722 72.3185 37.6067C72.4331 37.4539 72.5731 37.2883 72.7005 37.1228ZM67.8235 12.8144C66.7666 11.2609 66.4737 9.78376 66.9194 8.29393C67.4542 6.44755 68.7531 5.2888 70.7904 4.81765C72.9424 4.30831 75.0307 4.72852 76.9917 6.02734C77.6411 6.46029 78.2014 6.9569 78.698 7.50444C78.3797 7.21157 78.0359 6.94416 77.6539 6.68949C75.6929 5.39066 73.6046 4.97045 71.4526 5.4798C69.4152 5.95094 68.1164 7.1097 67.5816 8.95607C67.1359 10.4459 67.4288 11.923 68.4857 13.4765C68.9059 14.1004 69.377 14.6607 69.8864 15.1955C69.1478 14.4825 68.422 13.7057 67.8235 12.8144ZM169.463 25.2551C169.463 23.5997 169.094 22.5301 168.585 21.8425C169.399 22.4282 170.125 23.5997 170.125 25.9172V39.5677C170.125 39.6186 170.138 39.6695 170.138 39.7077C170.049 39.6695 169.947 39.6313 169.858 39.5804C169.781 39.5549 169.667 39.4658 169.667 39.4658C169.616 39.4149 169.578 39.3639 169.552 39.3003C169.493 39.1984 169.463 39.0668 169.463 38.9055V25.2551ZM91.1769 16.3543L91.0241 15.8832L91.3807 15.5393L91.8391 17.0164L91.8136 17.1056C91.8136 17.1565 91.8009 17.2202 91.8009 17.2839V22.3264C91.6735 22.3264 91.5589 22.3264 91.4316 22.3264H91.1387V16.6217C91.1387 16.558 91.1515 16.4944 91.1515 16.4434L91.1769 16.3543ZM88.6939 42.9803C89.1396 43.2731 89.6107 43.3623 89.98 43.3623C91.3807 43.3623 92.6031 42.3054 94.0293 41.0957C94.3603 40.8156 94.7041 40.5227 95.0607 40.2298C95.3281 40.0133 95.4809 40.0006 95.57 40.0388C95.7738 40.2935 95.9902 40.5099 96.2322 40.7009C96.143 40.6627 95.9775 40.6755 95.7228 40.892C95.3663 41.1721 95.0225 41.4777 94.6914 41.7578C93.2652 42.9675 92.0428 44.0244 90.6421 44.0244C90.0691 44.0244 89.2924 43.8207 88.6939 42.9803ZM175.677 31.8256C175.677 26.3756 176.492 23.1286 177.855 23.1286C178.237 23.1286 178.58 23.396 178.873 23.8799C178.759 23.8289 178.644 23.7907 178.517 23.7907C177.154 23.7907 176.339 27.0378 176.339 32.4878C176.339 37.5685 176.887 39.886 177.511 40.9047C176.696 40.5481 175.677 38.7272 175.677 31.8256ZM137.451 30.6669C137.451 35.7348 138.011 38.0651 138.622 39.0838C137.82 38.7272 136.789 36.9063 136.789 30.0047C136.789 24.5547 137.604 21.3077 138.979 21.3077C139.361 21.3077 139.768 21.4987 140.15 22.0972C139.972 22.008 139.807 21.9698 139.641 21.9698C138.266 21.9698 137.451 25.2169 137.451 30.6669ZM137.413 12.1649C137.82 11.9485 138.24 11.732 138.648 11.4646C139.641 10.8279 140.889 9.92383 141.729 8.5104C142.392 7.37711 142.595 6.20561 142.328 5.02139C142.201 4.47384 141.997 4.01544 141.691 3.60796C142.353 4.13004 142.799 4.81765 142.99 5.68354C143.257 6.86776 143.054 8.03925 142.392 9.17254C141.551 10.586 140.303 11.4901 139.31 12.1267C138.902 12.3941 138.482 12.6106 138.075 12.8271L137.986 12.8653C137.833 12.9417 137.807 13.0181 137.795 13.1327V19.5759C137.565 19.6396 137.349 19.7032 137.133 19.7796V12.4705C137.145 12.3559 137.171 12.2795 137.324 12.2031L137.413 12.1649ZM154.476 26.6431L154.921 26.1082C154.985 26.0318 156.539 24.1727 156.539 22.2754C156.539 21.8679 156.424 21.4987 156.233 21.1931C156.831 21.5369 157.201 22.1608 157.201 22.9376C157.201 22.963 157.252 23.536 156.895 24.4911C156.424 25.739 155.634 26.7195 155.584 26.7704L155.443 26.9487L154.476 26.6431Z" fill="#DAAF59"/>
<g id="&#60;Group&#62;">
<path id="&#60;Compound Path&#62;_2" fill-rule="evenodd" clip-rule="evenodd" d="M70.0774 53.8166C68.9441 54.0458 67.6326 54.1858 66.2191 54.1858C63.214 54.1858 59.8014 53.5492 56.8727 51.7919C52.7342 49.3089 50.4295 43.8334 51.3845 38.7655C51.7028 37.0974 52.4286 35.4802 53.5365 33.9649C54.7461 32.3223 56.2487 30.9725 57.9805 29.9793C59.6868 28.986 61.4058 28.4003 63.214 28.1711C67.9764 27.5726 72.5732 31.0744 73.0698 33.672C73.2608 34.7162 72.5477 35.5693 71.911 36.3333C71.7837 36.4989 71.6564 36.6644 71.529 36.8172C71.4144 36.9827 71.2362 37.1356 71.0452 37.2502C70.8287 37.3902 70.6377 37.3775 70.5231 37.3393C70.3533 37.2799 70.2302 37.1483 70.1538 36.9445C70.1156 36.8554 70.0774 36.7535 70.0392 36.6517C70.0137 36.5625 69.9755 36.4734 69.9373 36.3843C69.3516 35.0472 65.8753 33.3409 63.023 33.9012C59.7377 34.5252 55.8667 36.9955 54.8098 42.0507C54.4278 43.9608 54.848 45.7944 56.0577 47.5007C57.4202 49.4107 59.2284 50.7605 61.4186 51.4863C63.7488 52.2376 66.2446 52.314 68.855 51.7028C74.0121 50.4931 77.7558 46.6858 78.3925 41.9998C78.6471 40.1407 78.5707 38.3452 78.176 36.6389C77.7303 34.678 76.839 32.8061 75.451 30.8834C74.2158 29.1516 72.7005 27.5726 71.2489 26.0446L70.7523 25.5225C69.3516 24.0581 67.9127 22.5301 66.5375 21.0021C65.4296 19.7542 64.5128 18.3408 63.787 16.8C63.0485 15.1701 62.641 13.4893 62.59 11.7957C62.5264 9.79651 62.8575 7.87373 63.5833 6.07829C64.36 4.14279 65.8117 2.61475 67.9 1.50693C69.7209 0.551911 71.8474 0.0680338 74.3814 0.0043658C76.8644 -0.0465686 79.1055 0.348173 81.2575 1.18859C82.8874 1.83801 84.0589 2.58929 84.9503 3.55704C85.7652 4.43566 86.1982 5.37795 86.2364 6.35843C86.2746 7.21159 86.0199 7.98834 85.7907 8.57408C84.9248 10.7133 83.6896 12.547 82.1234 14.0495C81.9536 14.2023 81.7584 14.3467 81.5377 14.4825C81.2575 14.648 81.0028 14.6862 80.7864 14.5843C80.5741 14.474 80.4468 14.2448 80.4044 13.8967C80.3704 13.6081 80.3407 13.3195 80.3152 13.0308C80.2643 12.3942 80.2006 11.732 80.0606 11.1081C79.4875 8.49768 78.2269 6.57491 76.2023 5.23788C74.2413 3.93905 72.1657 3.51884 70.001 4.01545C67.9636 4.49933 66.6648 5.65809 66.13 7.49173C65.6843 8.99429 65.9899 10.4714 67.0468 12.0249C67.9127 13.3237 69.0333 14.3933 70.1156 15.3484C70.816 15.9723 71.529 16.5835 72.2421 17.1947C73.3117 18.1243 74.4196 19.0793 75.4892 20.0598C78.2779 22.5938 80.3534 25.1278 81.8178 27.8018C82.5054 29.0624 83.0784 30.3867 83.5114 31.7365C84.008 33.3155 84.3008 34.8944 84.3518 36.4225C84.4282 38.6381 84.0334 40.8665 83.1548 43.0312C81.5886 46.9022 76.3423 53.0016 70.0774 53.8166ZM79.9205 30.7306C79.0291 29.2789 77.8831 27.84 76.3041 26.2101C74.3432 24.1727 72.2421 22.2754 69.6954 20.0725C68.4984 19.0411 67.5816 18.0224 66.8813 16.9528C66.2064 15.9214 65.6716 14.839 65.2768 13.7057C65.4933 14.9664 65.9772 16.2015 66.7157 17.373C67.5307 18.6591 68.6258 19.6905 69.6954 20.6073L69.7463 20.6583C71.7964 22.4155 73.9102 24.2364 75.8075 26.2229C77.8194 28.3366 80.277 31.2272 81.4995 34.8562C81.5164 34.9157 81.5377 34.9751 81.5631 35.0345C81.3085 33.5447 80.7609 32.093 79.9205 30.7306Z" fill="#0E5634"/>
<path id="&#60;Compound Path&#62;_3" fill-rule="evenodd" clip-rule="evenodd" d="M174.594 45.1705C175.244 48.634 173.576 51.8301 170.367 53.3072C169.068 53.893 167.629 54.2113 165.719 54.3259C163.134 54.4787 160.702 54.0458 157.799 53.4855C156.742 53.2818 155.685 53.0908 154.641 52.8998C153.851 52.7555 153.062 52.6111 152.272 52.4668C151.72 52.365 151.169 52.2588 150.617 52.1485C149.789 51.983 148.962 51.8174 148.134 51.6773C146.937 51.4609 145.511 51.2189 144.046 51.0279C141.882 50.7605 139.551 50.4677 137.17 50.2512C133.859 49.9328 130.842 49.8055 127.951 49.8564C125.201 49.9074 122.921 49.9838 120.769 50.0984C119.063 50.2003 117.191 50.3531 115.065 50.595C113.511 50.7733 111.945 51.0279 110.417 51.2699L110.162 51.3208C108.991 51.4991 107.781 51.7028 106.622 51.9957C105.234 52.3395 103.77 52.7724 101.987 53.3455C97.8615 54.6697 93.5576 56.5925 88.8334 59.1902C86.8852 60.2598 85.2553 61.3803 83.8546 62.6028C83.3707 63.023 82.8232 63.5705 82.4666 64.3218C82.3647 64.5128 82.1992 64.793 81.8936 64.8439C81.8596 64.8524 81.8299 64.8566 81.8045 64.8566C81.5116 64.8566 81.2824 64.6402 81.206 64.5638L80.6712 64.0417C80.1491 63.5323 79.6143 62.9975 79.1049 62.4372C77.526 60.7055 77.2586 58.6554 78.3409 56.5161C79.2323 54.7461 80.7094 53.32 82.734 52.2758C85.1407 51.0407 87.5983 49.78 90.1195 48.7868C93.4685 47.4753 97.0211 46.673 100.357 45.9982C102.458 45.578 104.61 45.2851 106.686 45.0049L106.928 44.9667C108.762 44.7248 110.621 44.5083 112.454 44.3428C119.33 43.7316 125.901 43.7698 131.988 44.4447C134.369 44.6993 136.75 45.0431 139.042 45.4251C140.876 45.7435 142.875 46.151 145.332 46.724C146.682 47.0423 148.045 47.4116 149.369 47.7681C150.006 47.9379 150.642 48.1077 151.279 48.2775L157.468 49.8819C159.097 50.3149 160.727 50.5568 162.281 50.6077C164.789 50.6969 166.865 50.2512 168.635 49.2198C170.621 48.061 171.602 46.1892 171.564 43.6806C171.538 42.4837 171.08 41.6815 170.201 41.2867C169.692 41.0575 169.132 41.0575 168.355 41.274C168.036 41.3504 167.438 41.4905 166.916 41.4395C166.407 41.4013 165.859 41.1212 165.834 41.1085L165.757 41.0448C164.84 40.1534 164.7 39.4404 164.7 38.0906V24.975C164.7 24.0454 164.458 22.9249 163.287 22.9249C161.937 22.9249 161.657 24.3765 161.657 25.5989V35.4547C161.657 37.6704 162.103 37.6704 162.294 37.6704C162.536 37.6704 162.803 37.4794 162.879 37.4157L163.134 37.1738L163.936 38.1415L163.745 38.358C163.745 38.358 161.759 40.5482 161.351 40.9939C161.084 41.274 160.753 41.4523 160.333 41.4268C159.798 41.4268 159.212 41.1467 158.805 40.6882C157.913 39.7078 157.671 39.0583 157.671 37.543V24.7712C157.671 23.7653 157.353 23.4087 157.073 23.4087C157.035 23.4087 156.895 23.4342 156.576 23.7398L156.322 23.9945L155.583 23.1159L155.787 22.8994C155.787 22.8994 157.735 20.7984 158.053 20.4418C158.295 20.1999 158.537 20.098 158.868 20.098C160.091 20.098 161.046 20.862 161.364 22.0845C161.988 21.0912 162.981 19.8306 165.324 19.8306C166.33 19.8306 168.686 20.2763 168.686 24.4656V38.1033C168.686 38.2731 168.711 38.4089 168.762 38.5108C168.788 38.5745 168.826 38.6254 168.877 38.6763C168.89 38.6763 169.004 38.7655 169.068 38.7909C169.297 38.9055 169.526 39.0074 169.768 39.0965C170.087 39.2366 170.418 39.364 170.736 39.5422C172.799 40.6246 174.098 42.5219 174.594 45.1705ZM81.4989 59.2666C83.0142 57.8149 84.8096 56.185 86.9106 55.039C88.808 54.0076 90.8708 52.9507 93.2265 51.8174C94.9583 50.977 96.7028 50.2639 98.4473 49.6909C97.505 49.8522 96.5627 50.0559 95.6204 50.3021C92.8445 51.0152 90.1959 51.983 87.7638 53.1672C85.3826 54.3132 83.498 55.6375 82.0464 57.2929C80.824 58.6808 81.2824 59.3048 81.3588 59.3812C81.397 59.3557 81.4479 59.3048 81.4989 59.2666Z" fill="#0E5634"/>
<path id="&#60;Compound Path&#62;_4" fill-rule="evenodd" clip-rule="evenodd" d="M183.559 30.6924C183.61 35.3274 182.655 38.7655 180.784 40.65C179.765 41.6942 178.517 42.2163 177.078 42.2163C175.639 42.2163 174.391 41.6942 173.373 40.65C171.501 38.7655 170.546 35.3274 170.597 30.6924C170.673 23.6507 174.009 20.4418 177.078 20.4418C181.446 20.4418 183.496 25.7517 183.559 30.6924ZM177.065 22.3518C175.69 22.3518 174.875 25.6116 174.875 31.0489C174.875 39.0201 176.25 40.2171 177.065 40.2171C177.88 40.2171 179.243 39.0201 179.243 31.0489C179.243 25.6116 178.428 22.3518 177.065 22.3518Z" fill="#0E5634"/>
<path id="&#60;Path&#62;" d="M145.74 23.0777C146.071 22.7593 146.211 22.7466 146.237 22.7466C146.517 22.7466 146.835 23.1031 146.835 24.1091V36.8809C146.835 38.3962 147.065 39.0456 147.969 40.0261C148.376 40.4845 148.962 40.7647 149.497 40.7647C149.505 40.7647 149.509 40.7647 149.509 40.7647C149.904 40.7647 150.248 40.6119 150.515 40.319C150.923 39.886 152.897 37.6959 152.897 37.6959L153.1 37.4794L152.285 36.5116L152.031 36.7408C151.954 36.8172 151.7 37.0082 151.458 37.0082C151.267 37.0082 150.821 37.0082 150.821 34.7926V24.9368C150.821 23.5616 151.267 22.7975 152.069 22.7975C152.387 22.7975 152.629 22.8994 152.782 23.1031C153.088 23.4979 153.062 24.2746 152.922 24.8349L152.833 25.1405L153.966 25.5098L154.119 25.3315C154.183 25.2551 155.723 23.396 155.723 21.4987C155.723 20.289 154.832 19.4359 153.546 19.4359C152.667 19.4359 151.916 19.9452 151.496 20.4164C151.152 20.8111 150.757 21.244 150.541 21.486C150.248 20.2381 149.28 19.4359 148.032 19.4359C147.79 19.4359 147.51 19.4741 147.217 19.7797C146.886 20.1362 144.951 22.2373 144.951 22.2373L144.747 22.441L145.473 23.3324L145.74 23.0777Z" fill="#0E5634"/>
<path id="&#60;Compound Path&#62;_5" fill-rule="evenodd" clip-rule="evenodd" d="M85.6381 17.7296C85.6508 17.7296 87.1534 16.7873 89.5473 14.4698L89.9421 14.0877L90.3877 15.5776L90.375 15.654C90.3623 15.7049 90.3495 15.7686 90.3495 15.8322V21.5496H90.6424C91.381 21.5496 92.0176 21.5496 92.527 21.486C94.055 21.2568 94.628 20.9894 94.628 20.9894L95.2392 20.6965L95.1119 21.3586C95.0864 21.4223 94.7426 23.0013 93.7367 23.6252C93.1127 24.0072 91.9667 23.9945 90.6551 23.9945H90.3495V37.2374C90.3495 38.2943 90.5151 38.931 90.8334 39.1093C91.1517 39.3003 91.7884 39.122 92.7307 38.5745C93.4438 38.1543 93.7239 37.7595 93.7876 37.0082L93.7494 36.6899C93.7367 36.4734 93.7112 36.2952 93.6985 36.1805C93.6348 35.8367 93.7112 34.9199 93.7367 34.6525V34.5761C93.7621 33.7484 94.055 32.0421 95.7486 30.2212C96.7291 29.1643 98.1425 28.1711 100.46 26.885C100.88 26.6431 101.058 26.3629 101.058 25.8918V23.2559C101.058 22.2245 100.817 21.0021 99.6705 21.0021C98.8174 21.0021 98.0406 21.9953 98.0406 23.0904C98.0406 23.8162 98.5627 24.2492 98.8046 24.4656L98.8938 24.542C99.2758 24.9113 99.1484 25.2551 99.0211 25.4843C98.8174 25.8281 97.9133 26.4775 96.8946 26.4775C95.5576 26.4775 94.7299 25.5607 94.7299 24.0964C94.7299 21.8552 97.0729 19.3467 100.447 19.3467C104.484 19.3467 105.006 22.3646 105.006 24.9877V33.7739C105.006 36.5244 105.248 37.0337 105.719 37.0337C105.923 37.0337 106.203 36.8427 106.305 36.7536L106.572 36.5244L107.323 37.4666L107.132 37.6831C107.12 37.6958 105.452 39.555 104.751 40.3062C104.395 40.6755 104.178 40.7774 103.745 40.7774C102.536 40.7774 102.077 39.7842 101.644 38.7782C100.829 39.5295 99.6069 40.5864 97.5313 40.5864C96.3598 40.5864 95.443 40.1407 94.7808 39.2621C94.6917 39.2366 94.5261 39.2366 94.2587 39.4531C93.9022 39.746 93.5584 40.0388 93.2273 40.319C91.8139 41.5287 90.5915 42.5856 89.178 42.5856C88.1339 42.5856 86.3639 41.9489 86.3639 37.6576V23.9945H86.2238C85.4344 23.9945 84.0973 23.9818 83.4734 24.0709C82.8112 24.16 82.4165 24.351 82.4165 24.3638L81.9326 24.593V24.0582C81.9326 23.4979 82.2255 22.8485 82.6966 22.4283C83.3588 21.817 84.4284 21.5624 86.3639 21.5496V19.8179C86.3639 19.2321 86.2238 19.0539 86.0201 18.7992C85.8673 18.6082 85.5617 18.2262 85.5617 18.2262L85.3198 17.9333L85.6381 17.7296ZM99.5432 30.1321C98.4226 30.8961 97.7096 32.6533 97.7096 34.6143C97.7096 36.1678 98.4226 37.8996 99.3649 37.8996C100.053 37.8996 101.058 37.1865 101.058 35.9004C101.058 34.7671 101.046 31.3672 101.033 29.7373V29.1134C100.766 29.2917 100.256 29.6355 99.5432 30.1321Z" fill="#0E5634"/>
<path id="&#60;Compound Path&#62;_6" fill-rule="evenodd" clip-rule="evenodd" d="M120.286 38.5872C118.414 36.7026 117.459 33.2645 117.51 28.6295C117.573 23.6888 119.624 18.3789 123.991 18.3789C128.168 18.3789 130.409 23.536 130.473 28.6295C130.523 33.2518 129.568 36.7026 127.697 38.5872C126.678 39.6186 125.43 40.1534 123.991 40.1534C122.552 40.1534 121.304 39.6186 120.286 38.5872ZM123.978 38.1542C124.793 38.1542 126.169 36.9573 126.169 28.986C126.169 23.5488 125.341 20.289 123.978 20.289C122.616 20.289 121.788 23.5488 121.788 28.986C121.788 36.9573 123.163 38.1542 123.978 38.1542Z" fill="#0E5634"/>
<path id="&#60;Path&#62;_2" d="M114.671 24.8222L115.804 25.1787L115.944 25.0132C116.021 24.9368 117.561 23.0649 117.561 21.1804C117.561 20.149 116.81 19.1048 115.384 19.1048C114.505 19.1048 113.754 19.6141 113.347 20.0853C113.054 20.4164 112.608 20.9002 112.366 21.1676C112.137 20.1617 111.36 19.1048 109.87 19.1048C109.526 19.1048 109.297 19.2067 109.055 19.4613C108.724 19.8051 106.789 21.9062 106.789 21.9062L106.585 22.1227L107.311 23.0013L107.578 22.7466C107.884 22.4537 108.024 22.4155 108.075 22.4155C108.355 22.4155 108.673 22.7721 108.673 23.778V36.5626C108.673 38.0779 108.902 38.7145 109.807 39.7078C110.214 40.1534 110.813 40.4336 111.335 40.4336C111.343 40.4336 111.347 40.4336 111.347 40.4336C111.742 40.4336 112.086 40.2808 112.353 40.0006C112.761 39.5677 114.734 37.3648 114.734 37.3648L114.925 37.1483L114.136 36.1933L113.869 36.4225C113.792 36.4862 113.538 36.6772 113.296 36.6772C113.105 36.6772 112.646 36.6772 112.646 34.4743V24.6184C112.646 23.2305 113.092 22.4665 113.907 22.4665C114.238 22.4665 114.467 22.5683 114.62 22.7721C114.925 23.1795 114.9 23.9563 114.747 24.5038L114.671 24.8222Z" fill="#0E5634"/>
<path id="&#60;Compound Path&#62;_7" fill-rule="evenodd" clip-rule="evenodd" d="M93.7488 13.7821C92.9466 12.6361 92.832 11.4519 93.405 10.2804C93.6851 9.70735 93.9908 9.14707 94.2836 8.59952L94.36 8.45945C94.411 8.37032 94.5638 8.07745 94.8694 8.03925C95.175 7.98831 95.4297 8.23025 95.5061 8.31939C96.7794 9.60548 98.422 10.5096 100.689 11.1717C102.433 11.6938 104.025 11.8466 105.527 11.6556C106.775 11.4901 107.819 11.2736 108.736 10.9934C110.799 10.344 112.454 9.74555 113.97 9.10887C115.485 8.47219 117 7.75911 118.465 7.07149C119.084 6.78286 119.704 6.49423 120.324 6.20561C121.071 5.85755 121.818 5.5095 122.565 5.16145C124.284 4.3465 126.067 3.51882 127.837 2.72933C129.492 2.00352 131.186 1.49417 132.866 1.21403C135.069 0.832026 136.776 0.857494 138.367 1.29044C140.163 1.77431 141.194 2.74207 141.525 4.24463C141.793 5.42886 141.602 6.60035 140.927 7.73364C140.086 9.14707 138.839 10.0639 137.845 10.7006C137.451 10.9552 137.018 11.1717 136.61 11.3882L136.534 11.4264C136.381 11.5155 136.343 11.5792 136.343 11.7065V19.0029C137.056 18.7355 137.922 18.5954 138.902 18.5954C142.468 18.5954 144.874 22.8739 144.874 29.2407C144.874 31.0871 144.416 34.0413 143.563 36.0786C142.391 38.9055 140.43 40.3953 137.909 40.3953C135.566 40.3953 133.414 39.2493 131.835 37.161C131.377 36.5625 131.669 36.0404 131.784 35.8494L131.822 35.7858C131.886 35.6457 131.924 35.5311 131.924 35.4292V16.1633C131.924 14.1386 131.644 14.0877 130.816 13.9731L130.638 13.9349L130.32 13.1454L130.613 13.0054C130.613 13.0054 131.478 12.6106 133.108 11.923C133.567 11.732 134.089 11.4519 134.585 11.1335L134.687 11.0826C134.942 10.9043 135.175 10.7218 135.388 10.535C136.037 9.97475 136.75 9.28714 137.183 8.37032C137.54 7.63177 137.578 6.86775 137.285 6.1674C136.979 5.41612 136.317 4.80491 135.464 4.48657C134.942 4.29557 134.382 4.2319 133.732 4.25736C132.319 4.35923 130.867 4.70304 129.021 5.37792C126.627 6.26927 124.322 7.46623 122.094 8.61226L120.515 9.42721C117.828 10.8152 115.052 12.2541 112.302 13.6038C110.595 14.4442 108.736 15.1573 106.457 15.8704C104.445 16.5071 102.56 16.7872 100.701 16.749C99.7209 16.7236 98.422 16.6472 97.1614 16.2142C95.6589 15.7176 94.5383 14.9154 93.7488 13.7821ZM140.532 29.228C140.532 22.0462 139.246 20.5309 138.176 20.5309C136.814 20.5309 135.999 23.778 135.999 29.228C135.999 37.1992 137.361 38.3834 138.176 38.3834C139.653 38.3834 140.532 34.9581 140.532 29.228Z" fill="#0E5634"/>
</g>
<path id="&#60;Compound Path&#62;_8" fill-rule="evenodd" clip-rule="evenodd" d="M102.79 39.5676C102.943 39.6695 103.121 39.7205 103.351 39.7205C103.554 39.7205 103.605 39.7205 103.873 39.453C104.255 39.0456 104.93 38.2943 105.49 37.6703C105.566 37.6873 105.643 37.6958 105.719 37.6958C105.987 37.6958 106.241 37.5812 106.432 37.4666C105.859 38.1033 104.79 39.3002 104.267 39.8478C104.013 40.1152 103.962 40.1152 103.745 40.1152C103.325 40.1152 103.045 39.9497 102.79 39.5676ZM94.2971 38.1924C94.2971 38.1924 94.2928 38.1924 94.2843 38.1924C94.2249 38.1924 94.1612 38.1967 94.0933 38.2052L94.2971 38.1924ZM94.2971 38.1924C94.3904 38.1924 94.4796 38.2052 94.5645 38.2306C94.7045 38.2816 94.8319 38.358 94.9083 38.4726C94.9677 38.549 95.0314 38.6254 95.0993 38.7018C95.0611 38.6763 95.0101 38.6508 94.9719 38.6381C94.8786 38.6126 94.7894 38.5999 94.7045 38.5999C94.4244 38.5999 94.1443 38.7145 93.8514 38.9437C93.4821 39.2366 93.1383 39.5422 92.8072 39.8223C91.4829 40.9556 90.3497 41.9234 89.1909 41.9234C88.5797 41.9234 88.1467 41.656 87.8284 41.223C88.0831 41.414 88.4014 41.5286 88.7834 41.5286C89.9549 41.5286 91.0882 40.5609 92.3998 39.4276C92.7436 39.1347 93.0874 38.8418 93.4566 38.549C93.7368 38.3198 94.0169 38.2052 94.2971 38.1924ZM96.5 25.4334C97.2895 25.4334 97.9516 24.924 98.0535 24.7712C98.0662 24.733 98.0789 24.7203 98.0789 24.7075C98.1936 24.8221 98.3082 24.9113 98.3718 24.9749L98.461 25.0513C98.4779 25.0683 98.4864 25.0811 98.4864 25.0895C98.4864 25.0895 98.4737 25.115 98.4482 25.1659C98.3464 25.3188 97.6842 25.8281 96.8947 25.8281C96.2453 25.8281 95.876 25.5607 95.6596 25.2041C95.876 25.3442 96.1434 25.4334 96.5 25.4334ZM85.3453 22.9376H85.9693C86.2494 22.9376 86.4914 23.1286 86.5932 23.3832C86.5168 23.3578 86.4404 23.345 86.364 23.345L85.7401 23.3323C84.5686 23.3323 83.8173 23.3705 83.3844 23.4214C83.117 23.4596 82.8878 23.5106 82.6968 23.5615C82.7859 23.3578 82.9132 23.1795 83.066 23.014C83.499 22.963 84.2248 22.9376 85.3453 22.9376ZM97.0603 34.627C97.0603 35.8112 97.4041 37.0719 98.0153 37.8359C97.1621 37.1737 96.6528 35.6584 96.6528 34.2323C96.6528 32.0294 97.4677 30.1193 98.7666 29.2152C98.7666 29.2067 98.7666 29.2025 98.7666 29.2025C99.4924 28.6932 100.014 28.3621 100.282 28.1711C100.396 28.1074 100.524 28.0692 100.651 28.0692C100.753 28.0692 100.868 28.0947 100.957 28.1456C101.11 28.222 101.211 28.3621 101.262 28.5149C101.199 28.4767 101.122 28.464 101.046 28.464C100.919 28.464 100.791 28.5021 100.677 28.5786C100.409 28.7568 99.8871 29.0879 99.174 29.5972C99.1655 29.5972 99.1613 29.6015 99.1613 29.61C97.8625 30.5141 97.0603 32.4368 97.0603 34.627ZM166.191 40.5481C166.064 40.4208 165.962 40.3062 165.873 40.1916C166.038 40.2553 166.331 40.3699 166.573 40.3953C166.632 40.3953 166.692 40.3953 166.751 40.3953C167.146 40.3953 167.566 40.3062 167.783 40.2425C168.228 40.1152 168.61 40.0643 168.954 40.0643C169.362 40.0643 169.731 40.1407 170.087 40.2935C170.431 40.4463 170.801 40.7009 171.106 41.083C170.902 40.9174 170.686 40.7901 170.482 40.7009C170.126 40.5354 169.756 40.459 169.362 40.459C169.005 40.459 168.623 40.5227 168.177 40.6373C167.961 40.7009 167.553 40.8028 167.159 40.8028C167.099 40.8028 167.04 40.7986 166.98 40.7901C166.688 40.7646 166.331 40.6245 166.191 40.5481ZM89.2928 36.8554V23.5997C89.2928 23.4342 89.3692 23.2559 89.4965 23.1413C89.6111 23.014 89.7894 22.9376 89.9549 22.9376L90.668 22.9503C91.4193 22.9503 92.5526 22.9503 92.9982 22.6702C93.2529 22.5174 93.4566 22.25 93.6095 21.9698C93.8811 21.9104 94.1061 21.8552 94.2843 21.8043C94.1061 22.2754 93.8132 22.8102 93.393 23.0649C92.9473 23.345 91.814 23.345 91.0755 23.345H90.3624C90.1841 23.345 90.0186 23.4087 89.8912 23.536C89.7639 23.6634 89.7002 23.8289 89.7002 24.0072L89.6875 37.2501C89.6875 38.2052 89.8148 38.8673 90.095 39.2875C89.5474 38.9564 89.2928 38.2052 89.2928 36.8554ZM98.3336 49.0542C97.3786 49.1943 96.4108 49.4235 95.4558 49.6654C92.6417 50.3912 89.9549 51.3717 87.4719 52.5687C85.027 53.7656 83.1042 55.1791 81.5635 56.8472C80.3156 58.2096 80.5957 59.4193 80.6976 59.5849C80.6339 59.5594 79.3605 58.4261 81.1687 56.4524C82.6968 54.7716 84.6195 53.3709 87.0771 52.1739C89.5474 50.977 93.5203 49.3598 98.3336 49.0542ZM99.6706 20.3526C98.461 20.3526 97.3786 21.6387 97.3786 23.1031C97.3786 23.7398 97.6587 24.2109 97.9389 24.542C97.646 24.2873 96.9839 23.6888 96.9839 22.7084C96.9839 21.2313 98.0535 19.9452 99.2759 19.9452C99.6452 19.9452 100.295 20.047 100.766 20.6837C100.371 20.4036 99.9508 20.3526 99.6706 20.3526ZM135.337 29.2407C135.337 34.0667 135.834 37.0719 136.853 38.3452C135.567 37.3902 134.943 34.2577 134.943 28.8332C134.943 22.632 135.898 19.4868 137.782 19.4868C138.368 19.4868 138.865 19.7414 139.272 20.2635C138.954 20.0088 138.585 19.8815 138.177 19.8815C136.292 19.8815 135.337 23.0267 135.337 29.2407ZM97.3786 15.603C96.258 15.221 95.3794 14.6735 94.7173 13.9222C95.3158 14.4697 96.067 14.8899 96.9839 15.1955C98.1553 15.5903 99.3905 15.6794 100.333 15.6921C100.447 15.7049 100.677 15.7049 100.677 15.7049C102.345 15.7049 104.051 15.4247 105.872 14.8517C108.113 14.1514 109.947 13.4383 111.615 12.6233C114.365 11.2736 117.128 9.83469 119.815 8.45946L121.407 7.63178C123.648 6.47302 125.966 5.26333 128.398 4.37197C130.308 3.67163 131.823 3.31508 133.3 3.21322C133.419 3.20473 133.538 3.20048 133.657 3.20048C134.255 3.20048 134.803 3.28962 135.299 3.48062C135.961 3.72256 136.522 4.1173 136.942 4.61391C136.585 4.29557 136.165 4.05363 135.707 3.87536C135.197 3.69709 134.65 3.59522 134.051 3.59522C133.933 3.59522 133.814 3.59947 133.695 3.60796C132.218 3.70983 130.702 4.06637 128.792 4.76672C126.373 5.6708 124.056 6.86776 121.814 8.02652L120.21 8.8542C117.536 10.2422 114.76 11.6683 112.01 13.0181C110.341 13.833 108.508 14.5461 106.267 15.2465C104.446 15.8195 102.739 16.0996 101.071 16.0996C101.071 16.0996 100.842 16.0996 100.728 16.0869C99.7853 16.0742 98.5501 15.9978 97.3786 15.603ZM110.953 39.3894C111.156 39.3894 111.335 39.313 111.475 39.1602C111.717 38.9055 112.519 38.0014 113.13 37.3265C113.189 37.335 113.249 37.3393 113.308 37.3393C113.588 37.3393 113.856 37.2374 114.047 37.1228L114.06 37.1355C113.55 37.6958 112.201 39.2111 111.869 39.5549C111.729 39.7077 111.564 39.7841 111.347 39.7841C110.991 39.7841 110.583 39.5804 110.29 39.262C110.24 39.1984 110.189 39.1347 110.138 39.0838C110.392 39.2748 110.685 39.3894 110.94 39.3894H110.953ZM121.152 28.9988C121.152 33.8248 121.649 36.8299 122.655 38.1033C121.381 37.1483 120.745 34.0158 120.745 28.604C120.745 22.39 121.713 19.2448 123.597 19.2448C124.119 19.2448 124.552 19.4868 124.934 19.9579C124.654 19.7457 124.34 19.6396 123.992 19.6396C122.107 19.6396 121.152 22.7848 121.152 28.9988ZM115.524 23.536C115.957 22.8866 116.517 21.817 116.517 20.7856C116.517 20.5182 116.441 20.2508 116.301 20.0216C116.708 20.289 116.912 20.7474 116.912 21.1803C116.912 22.5428 115.944 23.9435 115.588 24.4274L115.473 24.3892C115.524 24.1218 115.549 23.8289 115.524 23.536ZM104.357 25.0004V33.7739C104.357 35.3274 104.408 36.5243 104.79 37.1737C104.026 36.7535 103.962 35.3528 103.962 33.3791V24.6057C103.962 22.8102 103.669 21.5623 103.032 20.7601C103.949 21.5241 104.357 22.8866 104.357 25.0004ZM111.347 20.9257C111.296 20.7219 111.182 20.4036 110.965 20.098C111.462 20.4545 111.666 21.0275 111.742 21.3331C111.742 21.3459 111.755 21.3713 111.768 21.3968C111.551 21.3204 111.398 21.1549 111.347 20.9257ZM120.592 37.9378C121.445 38.7018 122.451 39.0965 123.61 39.0965C124.858 39.0965 125.953 38.6381 126.844 37.734C128.589 35.9768 129.48 32.6915 129.429 28.2475C129.391 25.1405 128.525 22.0207 126.895 20.2126C128.78 21.9189 129.786 25.2933 129.824 28.6422C129.875 33.0862 128.983 36.3715 127.239 38.1288C126.348 39.0328 125.252 39.4913 124.005 39.4913C122.757 39.4913 121.662 39.0328 120.77 38.1288C120.707 38.0651 120.656 38.0014 120.592 37.9378ZM55.1285 47.488C53.8042 45.6288 53.3585 43.6297 53.7787 41.5286C54.8993 36.155 59.025 33.5319 62.514 32.857C62.9215 32.7806 63.3544 32.7424 63.8001 32.7424C66.0539 32.7424 68.6771 33.8375 69.7721 35.1236C68.5115 34.0158 66.2067 33.1372 64.1948 33.1372C63.7492 33.1372 63.3162 33.1754 62.9087 33.2518C59.4197 33.9267 55.294 36.5498 54.1862 41.9361C53.7533 44.0244 54.2117 46.0236 55.536 47.8827C55.8543 48.3411 56.2109 48.7613 56.5801 49.1561C56.0581 48.6594 55.5742 48.0992 55.1285 47.488ZM82.5567 42.7892C81.0414 46.5202 76.0116 52.3904 70.0141 53.1671C68.8044 53.4091 67.5183 53.5364 66.2322 53.5364C63.8638 53.5364 60.3875 53.1289 57.2295 51.2316C56.4401 50.7605 55.727 50.1747 55.0903 49.4871C55.6251 50.0092 56.2109 50.4676 56.8348 50.8369C59.9927 52.7342 63.469 53.1289 65.8375 53.1289C67.1236 53.1289 68.4096 53.0143 69.6066 52.7724C75.6041 51.9956 80.6466 46.1127 82.1619 42.3945C82.1619 42.3945 82.1619 42.3903 82.1619 42.3818C83.0024 40.3062 83.3844 38.1797 83.308 36.0532C83.257 34.5888 82.9769 33.0735 82.493 31.5582C82.0728 30.2467 81.5253 28.9606 80.8504 27.7381C79.6662 25.5734 78.0745 23.5106 76.0116 21.4477C78.2655 23.6379 79.9845 25.8281 81.2451 28.1329C81.92 29.3553 82.4803 30.6414 82.8878 31.953C83.3716 33.4683 83.6518 34.9836 83.7027 36.4479C83.7791 38.5744 83.3971 40.7009 82.5567 42.7765C82.5567 42.785 82.5567 42.7892 82.5567 42.7892ZM81.0796 13.833C81.0626 13.6802 81.0456 13.5317 81.0287 13.3874C81.122 13.3195 81.2069 13.2515 81.2833 13.1836C82.7859 11.7447 83.9574 9.98749 84.7851 7.95012C84.9888 7.4153 85.2307 6.72769 85.1925 6.00188C85.1543 5.18693 84.7851 4.39744 84.0975 3.63343C84.2333 3.76076 84.3606 3.8881 84.4795 4.01543C85.1798 4.77945 85.5618 5.56893 85.5873 6.39662C85.6255 7.12243 85.3963 7.81005 85.1798 8.34486C84.3521 10.3822 83.1806 12.1522 81.6781 13.5784C81.5507 13.6972 81.3979 13.8076 81.2197 13.9094C81.1687 13.9434 81.1305 13.9646 81.1051 13.9731C81.0966 13.9476 81.0881 13.901 81.0796 13.833ZM66.1049 12.0121C64.9334 10.2804 64.615 8.61226 65.1116 6.91869C65.7101 4.86859 67.2127 3.50609 69.4665 2.98401C70.1032 2.84394 70.7526 2.76754 71.3766 2.76754C73.0447 2.76754 74.6618 3.27688 76.1899 4.29557C76.8266 4.71578 77.3741 5.18693 77.8707 5.709C77.476 5.35246 77.0558 5.00865 76.5846 4.69031C75.0566 3.67163 73.4394 3.16228 71.7841 3.16228C71.1474 3.16228 70.5107 3.23868 69.8613 3.37875C67.6074 3.91356 66.1049 5.26333 65.5064 7.32617C65.0098 9.01974 65.3281 10.6751 66.5123 12.4069C66.958 13.069 67.4546 13.6675 67.9894 14.2278C67.3146 13.5529 66.6651 12.8398 66.1049 12.0121ZM182.91 30.7051C182.961 35.1618 182.07 38.4344 180.325 40.1916C179.434 41.0957 178.339 41.5668 177.091 41.5668C175.843 41.5668 174.748 41.0957 173.857 40.1916C173.793 40.1407 173.742 40.0643 173.678 40.0006C174.532 40.7773 175.537 41.1594 176.696 41.1594C177.944 41.1594 179.039 40.7009 179.931 39.7969C181.662 38.0396 182.554 34.7671 182.503 30.3103C182.477 27.2797 181.662 24.1091 180.02 22.2754C181.93 24.0199 182.859 27.4453 182.91 30.7051ZM81.3852 63.7997C81.4107 63.7742 81.4489 63.7233 81.4871 63.6469C81.8945 62.781 82.5057 62.1825 83.0406 61.7114C84.4795 60.4635 86.1348 59.3175 88.1213 58.2224C92.8964 55.5993 97.2385 53.6637 101.402 52.314C103.198 51.741 104.675 51.308 106.076 50.9642C107.26 50.6586 108.495 50.4676 109.667 50.2766L109.972 50.2257C111.487 49.9837 113.054 49.7163 114.607 49.5508C116.746 49.3089 118.631 49.1433 120.35 49.0542C122.527 48.9396 124.82 48.8504 127.557 48.7995C127.948 48.7995 128.338 48.7995 128.729 48.7995C131.301 48.7995 133.962 48.9268 136.853 49.1943C139.247 49.4235 141.577 49.7163 143.754 49.9837C145.231 50.1747 146.658 50.4167 147.855 50.6331C148.657 50.7732 149.446 50.926 150.249 51.0788L150.363 51.1043C150.915 51.2146 151.467 51.3208 152.019 51.4226C152.799 51.5754 153.585 51.7198 154.374 51.8556C155.431 52.0466 156.488 52.2503 157.532 52.4413C159.939 52.9125 162.116 53.3072 164.268 53.3072C164.608 53.3072 164.952 53.2945 165.3 53.269C167.121 53.1671 168.483 52.8743 169.705 52.314C172.634 50.9642 174.149 48.061 173.551 44.903C173.258 43.2859 172.621 41.987 171.692 40.9938C172.851 42.0252 173.615 43.4641 173.959 45.2978C174.544 48.4557 173.029 51.3717 170.1 52.7087C168.878 53.269 167.528 53.5619 165.694 53.6637C165.355 53.6892 165.011 53.702 164.663 53.702C162.511 53.702 160.346 53.3072 157.94 52.8488C156.883 52.6451 155.826 52.4541 154.769 52.2631C153.988 52.1187 153.203 51.9744 152.413 51.8301C151.861 51.7197 151.31 51.6094 150.758 51.499L150.643 51.4736C149.841 51.3208 149.052 51.168 148.262 51.0279C147.052 50.8114 145.626 50.5695 144.149 50.3785C141.984 50.1111 139.641 49.8182 137.248 49.6017C134.357 49.3216 131.696 49.1943 129.136 49.1943C128.737 49.1943 128.342 49.1985 127.952 49.207C125.214 49.2579 122.922 49.3343 120.745 49.4489C119.026 49.5381 117.141 49.7036 115.015 49.9455C113.448 50.1238 111.882 50.3785 110.367 50.6204L110.074 50.6714C108.89 50.8624 107.667 51.0534 106.47 51.359C105.082 51.7155 103.593 52.1357 101.81 52.7215C97.6333 54.0585 93.2911 55.994 88.5287 58.6171C86.5296 59.7122 84.8742 60.8582 83.4353 62.1061C82.9005 62.5773 82.2893 63.1758 81.8818 64.0416C81.8436 64.118 81.8181 64.169 81.7927 64.1817C81.7672 64.169 81.7417 64.1435 81.6781 64.0926L81.3852 63.7997ZM89.3055 21.1549V15.6285C89.4201 15.5266 89.522 15.4247 89.6366 15.3229L89.7257 15.6157C89.7172 15.6921 89.713 15.7685 89.713 15.8449V21.5496C89.713 21.6345 89.7257 21.7109 89.7512 21.7788C89.4965 21.6897 89.3055 21.4477 89.3055 21.1549ZM71.0328 35.5184C71.5931 34.8435 72.1661 34.1304 72.0387 33.4046C71.9241 32.7806 71.5039 32.0676 70.8672 31.3799C71.7331 32.1949 72.2934 33.0608 72.4335 33.7993C72.5735 34.5379 71.9878 35.2382 71.4275 35.9258C71.2747 36.1041 71.1474 36.2696 71.02 36.4225C70.9564 36.5116 70.8672 36.588 70.7654 36.6644C70.7399 36.588 70.7144 36.5116 70.689 36.4479C70.6508 36.3333 70.6126 36.2187 70.5616 36.1041C70.5616 36.1041 70.5574 36.1041 70.5489 36.1041C70.5744 36.0786 70.5998 36.0532 70.6253 36.0277C70.7399 35.8622 70.88 35.7094 71.0328 35.5184ZM167.643 24.0709C167.643 22.5301 167.299 21.5623 166.84 20.9766C167.49 21.4859 168.037 22.5046 168.037 24.4783V38.116C168.037 38.3962 168.088 38.6254 168.19 38.8164C168.203 38.8546 168.228 38.88 168.241 38.9055C168.207 38.8885 168.177 38.8716 168.152 38.8546C168.11 38.8206 168.071 38.7867 168.037 38.7527C167.927 38.6508 167.846 38.5405 167.795 38.4216C167.694 38.2306 167.643 37.9887 167.643 37.7213V24.0709ZM173.844 30.6541C173.844 24.4401 174.799 21.2949 176.683 21.2949C177.206 21.2949 177.639 21.5369 178.021 22.008C177.74 21.7958 177.426 21.6897 177.078 21.6897C175.194 21.6897 174.239 24.8349 174.239 31.0489C174.239 35.8749 174.735 38.88 175.741 40.1534C174.468 39.2111 173.844 36.0786 173.844 30.6541ZM148.466 39.5804C148.415 39.5167 148.364 39.453 148.313 39.4021C148.568 39.5804 148.861 39.695 149.128 39.695C149.344 39.695 149.51 39.6313 149.65 39.4785C149.892 39.2111 150.694 38.3198 151.305 37.6449C151.356 37.6534 151.416 37.6576 151.484 37.6576C151.777 37.6576 152.031 37.543 152.222 37.4284L152.235 37.4539C151.738 38.0142 150.376 39.5167 150.045 39.8733C149.905 40.0261 149.739 40.0897 149.523 40.0897C149.166 40.0897 148.759 39.886 148.466 39.5804ZM137.133 9.72009C138.062 9.13434 139.221 8.28119 139.973 6.9951C140.558 6.01461 140.737 5.00865 140.507 3.98997C140.393 3.51882 140.214 3.11135 139.934 2.76754C140.431 3.17502 140.749 3.70983 140.902 4.38471C141.131 5.4034 140.953 6.40935 140.38 7.38984C139.603 8.68867 138.444 9.54182 137.502 10.1276C137.133 10.3822 136.725 10.586 136.331 10.8024L136.242 10.8406C135.898 11.0189 135.719 11.2863 135.694 11.6556V19.0029C135.694 19.0793 135.719 19.1557 135.745 19.2194C135.686 19.2024 135.63 19.1769 135.579 19.143C135.401 19.0283 135.299 18.8246 135.299 18.6081V11.4646C135.49 11.3245 135.669 11.1717 135.847 11.0316C136.267 10.6624 136.725 10.2294 137.133 9.72009ZM159.315 40.2425C159.264 40.1789 159.213 40.1279 159.162 40.0643C159.404 40.2425 159.697 40.3571 159.964 40.3571C159.964 40.3571 160.015 40.3699 160.028 40.3699C160.155 40.3699 160.308 40.3317 160.486 40.1407C160.728 39.8733 161.543 38.9819 162.142 38.307C162.201 38.3155 162.261 38.3198 162.32 38.3198C162.613 38.3198 162.88 38.2052 163.059 38.1033L163.071 38.116C162.575 38.6763 161.212 40.1789 160.894 40.5354C160.703 40.7391 160.55 40.7646 160.423 40.7646C160.41 40.7646 160.372 40.7646 160.359 40.7646C160.002 40.7519 159.595 40.5481 159.315 40.2425ZM142.57 35.4292C143.398 33.4555 143.831 30.6287 143.831 28.8332C143.831 24.9622 142.927 21.9189 141.424 20.2508C143.169 21.8043 144.226 25.0259 144.226 29.228C144.226 31.0234 143.793 33.863 142.978 35.824C142.226 37.6067 140.749 39.7332 137.922 39.7332C136.038 39.7332 134.281 38.8928 132.893 37.3775C134.217 38.6381 135.821 39.3257 137.528 39.3257C140.355 39.3257 141.832 37.2119 142.57 35.4292ZM160.334 21.8425C160.257 21.5496 160.143 21.3077 159.99 21.0912C160.346 21.3459 160.601 21.7406 160.741 22.25C160.741 22.2627 160.754 22.2754 160.754 22.3009C160.55 22.2245 160.397 22.0589 160.334 21.8425ZM149.51 21.244C149.434 20.9257 149.306 20.6583 149.153 20.429C149.523 20.6965 149.79 21.1039 149.905 21.6387C149.917 21.6642 149.93 21.6897 149.93 21.7151C149.726 21.6387 149.561 21.4605 149.51 21.244ZM153.763 24.733L153.636 24.6948C153.687 24.4401 153.712 24.1473 153.699 23.8671C154.145 23.1668 154.693 22.0972 154.693 21.1039C154.693 20.7983 154.616 20.5436 154.476 20.3272C154.858 20.5691 155.087 20.9766 155.087 21.4987C155.087 22.7466 154.221 24.1345 153.763 24.733Z" fill="#DAAF59"/>
<path id="&#60;Path&#62;_3" d="M149.765 24.542V34.3978C149.765 35.6202 149.867 36.7663 150.541 37.1355C150.223 36.6007 150.159 35.7221 150.159 34.7926V24.9367C150.159 22.3391 151.611 22.1354 152.069 22.1354C152.464 22.1354 152.744 22.2372 152.961 22.3773C152.948 22.3518 152.935 22.3264 152.91 22.3009C152.719 22.0462 152.337 21.7406 151.662 21.7406C151.216 21.7406 149.765 21.9444 149.765 24.542Z" fill="#DAAF59"/>
<path id="&#60;Path&#62;_4" d="M160.601 25.2041V35.06C160.601 36.2824 160.702 37.4284 161.377 37.7977C161.059 37.2629 160.995 36.3842 160.995 35.4547V25.5989C160.995 22.581 162.6 22.2627 163.287 22.2627C163.568 22.2627 164.039 22.3136 164.459 22.6192C163.975 21.9698 163.275 21.8679 162.893 21.8679C162.205 21.8679 160.601 22.1863 160.601 25.2041Z" fill="#DAAF59"/>
<path id="&#60;Path&#62;_5" d="M111.589 24.2237V34.0667C111.589 35.2892 111.703 36.4352 112.378 36.8172C112.047 36.2824 111.984 35.391 111.984 34.4742V24.6184C111.984 22.008 113.448 21.8043 113.906 21.8043C114.301 21.8043 114.581 21.9189 114.798 22.059C114.785 22.0208 114.772 21.9953 114.747 21.9698C114.556 21.7152 114.174 21.4095 113.512 21.4095C113.053 21.4095 111.589 21.6133 111.589 24.2237Z" fill="#DAAF59"/>
<path id="&#60;Path&#62;_6" d="M101.249 37.7213C101.084 37.7213 100.931 37.785 100.803 37.8996C99.8993 38.7145 98.8679 39.5295 97.1361 39.5295C96.4358 39.5295 95.8627 39.3385 95.3916 38.9692C95.9137 39.6059 96.614 39.9242 97.5308 39.9242C99.2754 39.9242 100.294 39.122 101.198 38.2943C101.325 38.1797 101.478 38.1161 101.644 38.1161C101.695 38.1161 101.741 38.1203 101.784 38.1288C101.822 38.1415 101.848 38.1543 101.873 38.167C101.873 38.15 101.869 38.1373 101.86 38.1288C101.771 37.9251 101.606 37.785 101.389 37.7341C101.347 37.7256 101.3 37.7213 101.249 37.7213Z" fill="#DAAF59"/>
</g>
<g id="&#60;Group&#62;_2">
<path id="&#60;Path&#62;_7" d="M19.9084 3.34576C20.685 3.37562 29.9591 3.21882 39.8081 5.04077V26.852C39.8081 26.852 40.8684 45.639 19.9084 51.0228C-1.04407 45.639 0.00878033 26.852 0.00878033 26.852V5.04077C9.8578 3.21882 19.1319 3.37562 19.9084 3.34576Z" fill="#CE1F3A"/>
<g id="&#60;Group&#62;_3">
<path id="&#60;Path&#62;_8" d="M16.6385 41.5993C16.6758 41.7263 16.6758 41.898 16.6907 42.0996C16.7953 42.0399 16.8923 41.9503 17.0267 41.7636C17.079 41.689 17.2433 41.4425 17.2806 41.3604C17.542 40.666 17.4076 39.5384 16.1382 39.516C15.7424 39.5086 15.4437 39.516 15.0928 39.516C14.824 39.516 14.7194 39.3891 14.8688 39.1128C15.048 38.7768 15.2496 38.4408 15.4437 38.1122C15.6379 37.7837 15.6005 37.612 15.272 37.3506C14.8165 36.9847 14.7418 36.9773 14.5178 37.3506C14.1818 37.8733 13.8682 38.4109 13.577 38.956C13.3455 39.3891 13.0394 39.5235 12.5913 39.5235C11.3667 39.516 10.2766 39.5384 9.05196 39.5907C8.48446 39.6281 7.99164 40.0462 7.99911 40.5614C7.99911 41.1588 8.50686 41.8756 9.03702 41.9652C9.02956 41.8159 9.01462 41.6964 9.01462 41.5844C8.98475 41.2036 9.1341 40.9348 9.47011 40.8377C9.66426 40.778 9.87333 40.7481 10.0749 40.7481C10.7022 40.7332 11.3219 40.7406 11.9492 40.7406C12.3897 40.7406 12.4719 40.8825 12.2329 41.3081C11.994 41.7487 11.7177 42.1743 11.4937 42.6223C11.4115 42.7717 11.3742 42.9882 11.3817 43.1301C11.3891 43.7349 11.643 44.1904 12.4047 44.6907C12.6063 44.8251 12.8975 45.0192 13.1215 45.0939C13.0767 44.84 12.9049 44.4592 12.8228 44.2277C12.6212 43.593 12.6511 42.9061 13.0319 42.2938C13.2484 41.9428 13.4575 41.5844 13.6442 41.2111C13.8159 40.8676 14.0847 40.7406 14.4208 40.7406C14.8389 40.7357 15.2596 40.7357 15.6827 40.7406C16.2576 40.7481 16.4891 40.9646 16.6385 41.5993Z" fill="#DAAF59"/>
<path id="&#60;Path&#62;_9" d="M22.0074 9.53588L23.4336 7.40031L21.2309 8.14701L19.9092 6.4744L18.5875 8.14701L16.3848 7.40031L17.8184 9.53588H22.0074Z" fill="#DAAF59"/>
<path id="&#60;Path&#62;_10" d="M13.8387 14.1132C14.0105 13.7772 14.3913 13.247 15.1604 13.3889C16.7882 13.6876 17.5797 20.0719 14.9812 22.4912H19.9094H19.9169H24.8451C22.2466 20.0719 23.0307 13.6876 24.6659 13.3889C25.435 13.247 25.8159 13.7772 25.9876 14.1132C26.2714 14.6807 26.5028 15.0317 26.5028 15.0317C27.1002 12.9483 26.2863 11.4997 26.2863 11.4997C26.2863 11.4997 26.1295 11.1712 25.4052 11.1712C24.5241 11.1712 22.2317 11.1712 21.9853 11.1712C21.3282 11.1712 20.8652 11.2981 21.2311 11.4549C21.2311 11.4549 22.9933 12.2464 21.9853 13.9788C21.0519 15.5693 20.0737 17.6152 19.9094 17.9438C19.7526 17.6152 18.767 15.5693 17.8411 13.9788C16.8256 12.2464 18.5952 11.4549 18.5952 11.4549C18.9611 11.2981 18.4982 11.1712 17.8411 11.1712C17.5872 11.1712 15.3023 11.1712 14.4212 11.1712C13.6894 11.1712 13.5401 11.4997 13.5401 11.4997C13.5401 11.4997 12.7262 12.9483 13.3235 15.0317C13.3235 15.0317 13.5475 14.6807 13.8387 14.1132Z" fill="#DAAF59"/>
<path id="&#60;Path&#62;_11" d="M12.8824 28.2334C5.46013 22.1552 7.67784 11.9777 7.67784 11.9777L8.8651 11.8283C7.22235 19.2655 10.9185 23.686 12.5389 25.2167C12.5015 23.7756 12.621 22.5958 12.6957 22.0432C10.4929 19.8255 8.61869 15.8082 11.5308 8.99831L6.40098 9.46127C5.00464 9.56581 3.58591 9.69275 2.23438 9.84209C2.23438 9.84209 2.23438 10.0736 2.23438 10.4544C2.24184 11.0592 2.24931 11.7537 2.26424 12.5153L6.45325 12.0971C6.29644 12.814 6.1471 13.7175 6.06496 14.7629L2.29411 15.3752C2.30904 16.4728 2.32398 17.6003 2.33145 18.6831L6.02763 17.5257C6.07243 18.5038 6.19937 19.5343 6.43085 20.6021L2.37625 22.2598C2.39118 23.6113 2.39865 24.6492 2.39865 25.1122C2.39865 25.386 2.40363 25.6647 2.41358 25.9485L7.24475 23.3126C7.59571 24.2236 8.04373 25.1495 8.59629 26.0605L2.76453 29.4804C2.95121 30.6303 3.22002 31.8176 3.59337 33.0198L10.2988 28.4126C10.8663 29.0846 11.501 29.7417 12.2178 30.3914L4.92997 36.3949C5.4228 37.4178 5.99776 38.4334 6.67726 39.419L14.5102 32.2059C13.6664 31.0037 13.1736 29.6073 12.8824 28.2334Z" fill="#DAAF59"/>
<path id="&#60;Path&#62;_12" d="M15.1228 34.1473C14.1073 35.678 17.1091 38.0077 17.1091 38.0077C17.1091 38.0077 17.9827 37.0743 18.3038 35.4465C17.2285 34.8641 16.2877 34.0502 15.6007 33.3856C15.4589 33.6246 15.3021 33.8785 15.1228 34.1473Z" fill="#DAAF59"/>
<path id="&#60;Path&#62;_13" d="M30.7739 39.5907C29.5493 39.5384 28.4591 39.516 27.2345 39.5235C26.779 39.5235 26.4803 39.3891 26.2489 38.956C25.9502 38.4109 25.644 37.8733 25.308 37.3506C25.084 36.9773 25.0093 36.9847 24.5464 37.3506C24.2253 37.612 24.188 37.7837 24.3821 38.1122C24.5762 38.4408 24.7779 38.7768 24.9571 39.1128C25.0989 39.3891 25.0019 39.516 24.7256 39.516C24.3821 39.516 24.0834 39.5086 23.6877 39.516C22.4183 39.5384 22.2839 40.666 22.5452 41.3604C22.5825 41.4425 22.7468 41.689 22.7991 41.7636C22.9335 41.9503 23.0306 42.0399 23.1276 42.0996C23.15 41.898 23.15 41.7263 23.1874 41.5993C23.3367 40.9646 23.5682 40.7481 24.1432 40.7406C24.5663 40.7357 24.9869 40.7357 25.4051 40.7406C25.7411 40.7406 26.0099 40.8676 26.1817 41.2111C26.3683 41.5844 26.5774 41.9428 26.794 42.2938C27.1748 42.9061 27.2046 43.593 26.9956 44.2277C26.9209 44.4592 26.7491 44.84 26.7043 45.0939C26.9284 45.0192 27.2196 44.8251 27.4137 44.6907C28.1828 44.1904 28.4367 43.7349 28.4442 43.1301C28.4516 42.9882 28.4143 42.7717 28.3322 42.6223C28.1007 42.1743 27.8319 41.7487 27.5929 41.3081C27.354 40.8825 27.4361 40.7406 27.8767 40.7406C28.4964 40.7406 29.1237 40.7332 29.7509 40.7481C29.9525 40.7481 30.1616 40.778 30.3557 40.8377C30.6917 40.9348 30.8411 41.2036 30.8112 41.5844C30.8038 41.6964 30.7963 41.8159 30.7813 41.9652C31.319 41.8756 31.8193 41.1588 31.8267 40.5614C31.8267 40.0462 31.3414 39.6281 30.7739 39.5907Z" fill="#DAAF59"/>
<path id="&#60;Path&#62;_14" d="M25.3232 28.338C25.3307 28.2857 25.3382 28.226 25.3531 28.1662C25.3531 28.1588 25.3531 28.1364 25.3531 28.1214H25.1814H23.5386H21.0521H20.9774H18.8493H18.7746H16.2881H14.6454H14.4736C14.4736 28.1364 14.4736 28.1588 14.4736 28.1662C14.4886 28.226 14.496 28.2857 14.5035 28.338C14.5334 28.5247 14.5632 28.6964 14.608 28.8681C14.7026 29.2913 14.8321 29.6995 14.9963 30.0927C15.2651 30.7349 15.6086 31.3472 16.0417 31.9296C16.0716 31.967 16.1014 31.9819 16.1537 31.9819H16.4748H18.7746H21.0521H23.3519H23.673C23.7253 31.9819 23.7552 31.967 23.785 31.9296C24.2181 31.3472 24.5616 30.7349 24.8304 30.0927C24.9947 29.6995 25.1241 29.2913 25.2187 28.8681C25.2635 28.6964 25.2934 28.5247 25.3232 28.338Z" fill="#DAAF59"/>
<path id="&#60;Path&#62;_15" d="M25.3978 24.0443V23.7457H22.9934H20.813H19.0135H16.8331H14.4287V24.0443V26.3292H17.0198H17.0496H19.0135H20.813H22.7769H22.8067H25.3978V24.0443Z" fill="#DAAF59"/>
<path id="&#60;Path&#62;_16" d="M33.4243 9.46127L28.2944 8.99831C31.2066 15.8082 29.3323 19.8255 27.1296 22.0432C27.2042 22.5958 27.3237 23.7756 27.2864 25.2167C28.9067 23.686 32.5954 19.2655 30.9602 11.8283L32.1474 11.9777C32.1474 11.9777 34.3651 22.1552 26.9429 28.2334C26.6517 29.6073 26.1589 31.0037 25.3076 32.2059L33.148 39.419C33.82 38.4334 34.4025 37.4178 34.8953 36.3949L27.6075 30.3914C28.3243 29.7417 28.959 29.0846 29.5265 28.4126L36.2319 33.0198C36.6052 31.8176 36.8741 30.6303 37.0607 29.4804L31.229 26.0605C31.7815 25.1495 32.2296 24.2236 32.5805 23.3126L37.4117 25.9485C37.4216 25.6647 37.4266 25.386 37.4266 25.1122C37.4266 24.6492 37.4341 23.6113 37.449 22.2598L33.3944 20.6021C33.6259 19.5343 33.7454 18.5038 33.7976 17.5257L37.4864 18.6831C37.5013 17.6003 37.5162 16.4728 37.5311 15.3752L33.7603 14.7629C33.6782 13.7175 33.5288 12.814 33.372 12.0971L37.561 12.5153C37.576 11.7537 37.5834 11.0592 37.5909 10.4544C37.5909 10.0736 37.5909 9.84209 37.5909 9.84209C36.2394 9.69275 34.8206 9.56581 33.4243 9.46127Z" fill="#DAAF59"/>
<path id="&#60;Path&#62;_17" d="M24.2181 33.3856C23.5386 34.0502 22.5902 34.8641 21.5225 35.4465C21.8435 37.0743 22.7172 38.0077 22.7172 38.0077C22.7172 38.0077 25.7189 35.678 24.696 34.1473C24.5167 33.8785 24.3674 33.6246 24.2181 33.3856Z" fill="#DAAF59"/>
<path id="&#60;Path&#62;_18" d="M19.9839 37.8136L19.9093 37.4925L19.8421 37.8136C18.7295 43.4437 15.9667 45.878 14.8242 46.0124L18.0948 48.0808C18.0948 48.0808 19.3866 46.5426 19.9093 45.5271H19.9167C20.4394 46.5426 21.7312 48.0808 21.7312 48.0808L25.0018 46.0124C23.8593 45.878 21.0965 43.4437 19.9839 37.8136Z" fill="#DAAF59"/>
</g>
</g>
</g>
</svg>
